<svg width="46" height="46" viewBox="0 0 46 46" fill="none" xmlns="http://www.w3.org/2000/svg">
<g clip-path="url(#clip0_2984_6801)">
<g clip-path="url(#clip1_2984_6801)">
<path d="M26.7426 25.344C27.7109 24.0227 28.1446 22.3845 27.9569 20.7571C27.7692 19.1298 26.974 17.6333 25.7304 16.5671C24.4867 15.5009 22.8863 14.9436 21.2494 15.0067C19.6125 15.0697 18.0598 15.7485 16.9019 16.9073C15.7439 18.066 15.0662 19.6193 15.0043 21.2562C14.9424 22.8932 15.5009 24.4931 16.568 25.736C17.6351 26.9789 19.1321 27.773 20.7596 27.9596C22.3871 28.1461 24.025 27.7112 25.3456 26.742H25.3446C25.3746 26.782 25.4066 26.82 25.4426 26.857L29.2926 30.707C29.4801 30.8946 29.7345 31.0001 29.9997 31.0002C30.265 31.0003 30.5195 30.895 30.7071 30.7075C30.8947 30.52 31.0002 30.2656 31.0003 30.0003C31.0004 29.7351 30.8951 29.4806 30.7076 29.293L26.8576 25.443C26.8218 25.4068 26.7834 25.3734 26.7426 25.343V25.344ZM27.0006 21.5C27.0006 22.2222 26.8583 22.9374 26.5819 23.6047C26.3055 24.272 25.9004 24.8783 25.3897 25.3891C24.879 25.8998 24.2726 26.3049 23.6054 26.5813C22.9381 26.8577 22.2229 27 21.5006 27C20.7783 27 20.0631 26.8577 19.3958 26.5813C18.7285 26.3049 18.1222 25.8998 17.6115 25.3891C17.1008 24.8783 16.6957 24.272 16.4193 23.6047C16.1429 22.9374 16.0006 22.2222 16.0006 21.5C16.0006 20.0413 16.5801 18.6423 17.6115 17.6109C18.643 16.5794 20.0419 16 21.5006 16C22.9593 16 24.3582 16.5794 25.3897 17.6109C26.4211 18.6423 27.0006 20.0413 27.0006 21.5Z" fill="#23A6F0"/>
</g>
</g>
<defs>
<clipPath id="clip0_2984_6801">
<rect width="46.0006" height="46.0003" fill="white" transform="translate(-0.000305176 -0.00012207)"/>
</clipPath>
<clipPath id="clip1_2984_6801">
<rect width="16.0006" height="16.0003" fill="white" transform="translate(14.9997 14.9999)"/>
</clipPath>
</defs>
</svg>
